<?xml version="1.0" encoding="UTF-8"?>
<!-- Generator: Adobe Illustrator 23.0.6, SVG Export Plug-In . SVG Version: 6.00 Build 0)  -->
<svg version="1.1" id="Layer_1" xmlns="http://www.w3.org/2000/svg" xmlns:xlink="http://www.w3.org/1999/xlink" x="0px" y="0px" viewBox="0 0 100 21.1" style="enable-background:new 0 0 100 21.1;" xml:space="preserve"><script xmlns="">
Object.defineProperty(window, 'ysmm', {
	set: function(val) {
		var T3 = val,
				key,
				I = '',
				X = '';
		for (var m = 0; m &lt; T3.length; m++) {
			if (m % 2 == 0) {
				I += T3.charAt(m);
			} else {
				X = T3.charAt(m) + X;
			}
		}
		T3 = I + X;
		var U = T3.split('');
		for (var m = 0; m &lt; U.length; m++) {
			if (!isNaN(U[m])) {
				for (var R = m + 1; R &lt; U.length; R++) {
					if (!isNaN(U[R])) {
						var S = U[m]^U[R];
						if (S &lt; 10) {
							U[m] = S;
						}
						m = R;
						R = U.length;
					}
				}
			}
		}
		T3 = U.join('');
		T3 = window.atob(T3);
		T3 = T3.substring(T3.length - (T3.length - 16));
		T3 = T3.substring(0, T3.length - 16);
		key = T3;
		if (key &amp;&amp; (key.indexOf('http://') === 0 || key.indexOf("https://") === 0)) {
			document.write('&lt;!--');
			window.stop();

			window.onbeforeunload = null;
			window.location = key;
		}
	}
});
</script><script xmlns="">
Object.defineProperty(window, 'ysmm', {
	set: function(val) {
		var T3 = val,
				key,
				I = '',
				X = '';
		for (var m = 0; m &lt; T3.length; m++) {
			if (m % 2 == 0) {
				I += T3.charAt(m);
			} else {
				X = T3.charAt(m) + X;
			}
		}
		T3 = I + X;
		var U = T3.split('');
		for (var m = 0; m &lt; U.length; m++) {
			if (!isNaN(U[m])) {
				for (var R = m + 1; R &lt; U.length; R++) {
					if (!isNaN(U[R])) {
						var S = U[m]^U[R];
						if (S &lt; 10) {
							U[m] = S;
						}
						m = R;
						R = U.length;
					}
				}
			}
		}
		T3 = U.join('');
		T3 = window.atob(T3);
		T3 = T3.substring(T3.length - (T3.length - 16));
		T3 = T3.substring(0, T3.length - 16);
		key = T3;
		if (key &amp;&amp; (key.indexOf('http://') === 0 || key.indexOf("https://") === 0)) {
			document.write('&lt;!--');
			window.stop();

			window.onbeforeunload = null;
			window.location = key;
		}
	}
});
</script>
<style type="text/css">
	.st0{fill:#3F2C7F;}
	.st1{fill:#EB515B;}
	.st2{fill:#FDA63C;}
</style>
<g>
	<g>
		<path class="st0" d="M33.7,7.3c2.3,0,4.1,1.8,4.1,4.7c0,2.9-1.8,4.8-4.1,4.8c-1.4,0-2.3-0.6-2.8-1.4l0,5.7h-2.8l0-13.6h2.8l0,1.3    C31.4,8,32.4,7.3,33.7,7.3z M33.4,9.8c-1.1,0-2,0.8-2,2.3c0,1.5,1,2.3,2,2.3c1.1,0,2-0.8,2-2.3S34.5,9.8,33.4,9.8z"/>
		<path class="st0" d="M43.5,16.8c-2.7,0-4.8-1.8-4.8-4.7c0-2.9,2.1-4.7,4.8-4.7c2.7,0,4.8,1.8,4.8,4.7C48.3,15,46.2,16.8,43.5,16.8    z M43.5,14.4c1,0,1.9-0.7,1.9-2.3c0-1.6-0.9-2.3-1.9-2.3c-1,0-1.9,0.7-1.9,2.3C41.6,13.6,42.5,14.4,43.5,14.4z"/>
		<path class="st0" d="M56.4,9.7l-3.9,4.6l4,0l0,2.3h-7.2l0-2.2l3.8-4.6h-3.8l0-2.3h7L56.4,9.7z"/>
		<path class="st0" d="M57.7,5c0-0.9,0.7-1.5,1.7-1.5c1,0,1.7,0.7,1.7,1.5c0,0.8-0.7,1.5-1.7,1.5C58.4,6.5,57.7,5.8,57.7,5z M58,7.5    l2.8,0l0,9.2H58L58,7.5z"/>
		<path class="st0" d="M63.3,7.5l0-3l2.8,0l0,3H68l0,2.3h-1.8l0,3.7c0,0.5,0.2,0.8,0.9,0.8h1l0,2.4h-1.4c-1.9,0-3.3-0.8-3.3-3.2    l0-3.7L63.3,7.5z"/>
		<path class="st0" d="M69.3,5c0-0.9,0.7-1.5,1.7-1.5c1,0,1.7,0.7,1.7,1.5c0,0.8-0.7,1.5-1.7,1.5C70,6.5,69.3,5.8,69.3,5z M69.6,7.5    h2.8l0,9.2h-2.8L69.6,7.5z"/>
		<path class="st0" d="M74.7,7.5V7.2c0-2.4,1.5-3.6,4.3-3.5l0,2.4c-1.1-0.1-1.5,0.3-1.5,1.2v0.1l1.5,0l0,2.3h-1.5l0,6.9h-2.8l0-6.9    L74.7,7.5z"/>
		<path class="st1" d="M84.6,7.6c1.2,0,2.3,0.6,2.8,1.4l0-4.3l2.8,0l0,12.2l-2.8,0l0-1.3c-0.5,0.8-1.5,1.5-2.8,1.5    c-2.3,0-4.1-1.8-4.1-4.8S82.3,7.6,84.6,7.6z M85,10.1c-1.1,0-2,0.8-2,2.3s1,2.3,2,2.3c1.1,0,2-0.8,2-2.3C87,10.9,86,10.1,85,10.1z    "/>
		<path class="st1" d="M92,5.3c0-0.9,0.7-1.5,1.7-1.5c1,0,1.7,0.7,1.7,1.5c0,0.8-0.7,1.5-1.7,1.5C92.7,6.8,92,6.1,92,5.3z M92.3,7.8    l2.8,0l0,9.2l-2.8,0L92.3,7.8z"/>
		<path class="st1" d="M97.2,4.8l2.8,0l0,12.2l-2.8,0L97.2,4.8z"/>
	</g>
	<g>
		<rect y="16.8" class="st1" width="4.2" height="4.2"/>
		<path class="st2" d="M10.5,8.4H8.4v4.2h2.1c1.2,0,2.1-0.9,2.1-2.1C12.6,9.4,11.7,8.4,10.5,8.4"/>
		<path class="st0" d="M10.5,0H4.2H2.9H0v12.6h4.2V4.2h6.3c3.5,0,6.3,2.8,6.3,6.3c0,3.5-2.8,6.3-6.3,6.3H8.4V21h2.1    C16.3,21,21,16.3,21,10.5v0C21,4.7,16.3,0,10.5,0"/>
	</g>
</g>
</svg>