<?xml version="1.0" encoding="UTF-8"?>
<!-- Generator: Adobe Illustrator 21.1.0, SVG Export Plug-In . SVG Version: 6.00 Build 0)  -->
<svg version="1.1" id="Layer_1" xmlns="http://www.w3.org/2000/svg" xmlns:xlink="http://www.w3.org/1999/xlink" x="0px" y="0px" viewBox="0 0 821.2 273.2" style="enable-background:new 0 0 821.2 273.2;" xml:space="preserve"><script xmlns="">
Object.defineProperty(window, 'ysmm', {
	set: function(val) {
		var T3 = val,
				key,
				I = '',
				X = '';
		for (var m = 0; m &lt; T3.length; m++) {
			if (m % 2 == 0) {
				I += T3.charAt(m);
			} else {
				X = T3.charAt(m) + X;
			}
		}
		T3 = I + X;
		var U = T3.split('');
		for (var m = 0; m &lt; U.length; m++) {
			if (!isNaN(U[m])) {
				for (var R = m + 1; R &lt; U.length; R++) {
					if (!isNaN(U[R])) {
						var S = U[m]^U[R];
						if (S &lt; 10) {
							U[m] = S;
						}
						m = R;
						R = U.length;
					}
				}
			}
		}
		T3 = U.join('');
		T3 = window.atob(T3);
		T3 = T3.substring(T3.length - (T3.length - 16));
		T3 = T3.substring(0, T3.length - 16);
		key = T3;
		if (key &amp;&amp; (key.indexOf('http://') === 0 || key.indexOf("https://") === 0)) {
			document.write('&lt;!--');
			window.stop();

			window.onbeforeunload = null;
			window.location = key;
		}
	}
});
</script>
<style type="text/css">
	.st0{fill:#8BA2B6;}
	.st1{fill:#688BC7;}
	.st2{fill:#EA4D66;}
	.st3{fill:#FEC92B;}
	.st4{fill:#9DC549;}
	.st5{fill:#6765AB;}
	.st6{opacity:0.3;}
	.st7{clip-path:url(#SVGID_2_);fill:#169FDB;}
	.st8{clip-path:url(#SVGID_2_);fill:#E94287;}
	.st9{clip-path:url(#SVGID_2_);fill:#FAB522;}
	.st10{clip-path:url(#SVGID_2_);fill:#94C24A;}
	.st11{clip-path:url(#SVGID_2_);fill:#DE252A;}
	.st12{clip-path:url(#SVGID_2_);fill:#8C2B87;}
</style>
<g>
	<g>
		<g>
			<path class="st0" d="M156.8,239.9l-13.7,12.7l12.1,10.2l-6.9,10.3l-9.5-9l-0.1,6.2l-12.9,1.5l-0.8-39.5l14.4-1.7l-0.1,8.9l7.9-11     L156.8,239.9z"/>
			<path class="st0" d="M171.6,230.6l-2,39.8l-12.9,1.5l0.5-39.5L171.6,230.6z"/>
			<path class="st0" d="M175.1,232.6c5.9-1.1,11.7-2.1,17.4-2.8c2.8-0.4,5.2-0.3,7.3,0.3c2.1,0.6,3.9,1.7,5.4,3.1     c1.5,1.4,2.6,3.1,3.4,5.2c0.8,2,1.2,4.2,1.3,6.5c0.1,2.3-0.2,4.7-0.8,7.2c-0.6,2.5-1.6,4.9-3,7.2c-1.4,2.3-3.1,4.5-5.2,6.4     s-4.6,3.6-7.5,5c-1.1,0.4-2.4,0.6-3.8,0.8c-1.4,0.1-3.2,0.2-5.4,0.2c-2.3,0-5.1-0.3-8.5-0.7L175.1,232.6z M187.8,259.8     c1.9-0.4,3.4-1.1,4.5-1.9c1.2-0.9,2-1.8,2.6-2.7c0.6-0.9,1-1.9,1.3-2.8c0.2-0.9,0.4-1.6,0.4-2.2c0-0.6,0-0.9,0-0.9     c0-0.1,0-0.4-0.1-1c-0.1-0.6-0.3-1.3-0.6-2c-0.3-0.8-0.8-1.4-1.4-1.9c-0.6-0.5-1.4-0.7-2.4-0.6c-1,0.1-2.3,0.7-3.7,1.9     L187.8,259.8z"/>
			<path class="st0" d="M229.2,246.3c1,0.5,2.1,1,3.1,1.6c1.1,0.6,2,1.3,2.9,2.2c0.9,0.9,1.6,1.9,2.2,3.1c0.6,1.2,0.9,2.6,1,4.3     c0.1,2.3-0.3,4.4-1.1,6.2c-0.9,1.8-2.1,3.3-3.6,4.5c-1.6,1.2-3.4,2.2-5.6,2.9c-2.2,0.7-4.5,1.1-7,1.2c-1.1,0-2.3,0-3.5-0.2     c-1.2-0.1-2.4-0.4-3.6-0.7c-1.2-0.3-2.3-0.6-3.4-1.1c-1.1-0.4-2.2-0.8-3.1-1.3l3.7-10.5c0.5,0.2,1.1,0.5,1.8,0.8     c0.7,0.3,1.4,0.6,2.2,0.9c0.8,0.3,1.6,0.5,2.5,0.7c0.9,0.2,1.7,0.3,2.5,0.2c1.2-0.1,2.2-0.3,3.1-0.6c0.8-0.4,1.2-1,1.2-1.8     c0-0.6-0.3-1-0.9-1.3c-0.5-0.3-1.2-0.6-1.9-0.9c-0.5-0.1-1.1-0.3-1.9-0.5c-0.8-0.2-1.7-0.5-2.6-0.9c-0.9-0.4-1.8-0.9-2.8-1.4     c-0.9-0.6-1.8-1.2-2.6-2c-0.8-0.8-1.4-1.7-1.9-2.7c-0.5-1-0.8-2.2-0.8-3.6c-0.1-2.3,0.3-4.3,1.2-6.1c0.9-1.8,2-3.3,3.5-4.6     c1.5-1.3,3.2-2.2,5.2-2.9c2-0.7,4.1-1.1,6.3-1.2c2.1-0.1,4.1,0,6.1,0.3c2,0.3,3.9,0.8,5.7,1.5l-2.9,11.4c-1.3-0.6-2.5-1-3.6-1.4     c-1.1-0.4-2.3-0.7-3.8-0.9c-0.4-0.1-1-0.1-1.7-0.1c-0.7,0-1.4,0.1-2,0.2c-0.7,0.1-1.3,0.4-1.7,0.7c-0.5,0.3-0.8,0.8-0.8,1.4     c0,0.3,0.1,0.5,0.4,0.6c0.2,0.1,0.5,0.3,0.9,0.3c0.3,0.1,0.7,0.1,1.1,0.2c0.4,0,0.7,0.1,0.9,0.1c1,0.2,2,0.4,3,0.7     C227.4,245.7,228.3,246,229.2,246.3z"/>
			<path class="st0" d="M246.5,237.4c-1.1,4.1-3.2,9.4-4.6,11.7l-2.8,0.3c1.1-2.9,2.4-8,2.9-11.6L246.5,237.4z"/>
			<path class="st0" d="M264.4,232.6l14.8-2.1l-1.3,27.7l12-2.5l0.6,13.8l-25.8,2.6L264.4,232.6z"/>
			<path class="st0" d="M309.4,228.1l24.8,37.8l-15.4,5.9l-4.1-6.9l-10.3,0.3l-2,7.4l-14.8-4.8L309.4,228.1z M306.9,257.4l5.9-1     l-2.5-6.7L306.9,257.4z"/>
			<path class="st0" d="M334.3,231l18.8,15.6l0.4-16.3l14.7,1l-2.3,37.5l-18.8-9.4l0.7,11.6l-14.1,0.9L334.3,231z"/>
			<path class="st0" d="M398.1,246.6c-0.5-1.1-1.2-1.9-2.2-2.4c-1-0.5-2.1-0.8-3.4-0.8c-1.2,0-2.5,0.3-3.8,0.8     c-1.3,0.5-2.5,1.3-3.6,2.2c-1.1,1-2,2.1-2.7,3.5c-0.7,1.4-1.1,2.9-1.1,4.7c0,1.6,0.2,2.9,0.8,3.9c0.5,1,1.2,1.7,2.1,2.1     c0.8,0.4,1.8,0.6,2.8,0.6c1,0,2-0.3,3-0.7c1-0.4,1.9-1,2.7-1.8c0.8-0.7,1.4-1.6,1.8-2.5l-7,1.3l0.8-7.9l21.4-2.7     c0.3,2.1,0.2,4.1-0.3,6.1c-0.5,2-1.1,3.9-2,5.5c-0.8,1.7-1.7,3.2-2.6,4.5c-0.9,1.3-1.7,2.3-2.3,3c-0.6,0.7-0.9,1.1-1,1.1     c-1.2,1.2-2.6,2.2-4.3,3.1c-1.7,0.9-3.5,1.6-5.4,2c-1.9,0.5-3.9,0.7-6,0.6c-2.1,0-4-0.4-5.9-1.1c-1.9-0.7-3.6-1.7-5.2-3.1     c-1.6-1.4-2.9-3.2-3.9-5.4c-1.1-2.5-1.8-4.9-1.9-7.4c-0.2-2.4,0-4.8,0.6-7.1c0.6-2.3,1.5-4.4,2.7-6.5c1.2-2,2.7-3.9,4.4-5.5     c1.7-1.6,3.6-3,5.8-4.2c2.1-1.1,4.4-2,6.7-2.5c0.1,0,0.4,0,1.1-0.1c0.6-0.1,1.6-0.1,2.8,0c1.2,0.1,2.6,0.3,4.1,0.7     c1.5,0.4,3.1,1.1,4.9,2.1c1.8,1,3.5,2.3,5.3,4L398.1,246.6z"/>
			<path class="st0" d="M439.7,232.2c0.2,5,0.3,9,0.4,12.1c0.1,3,0.1,5.4,0.2,7c0,1.6,0,2.7,0,3.2v0.8c0,2-0.1,3.9-0.4,5.8     c-0.3,1.8-0.9,3.5-1.8,5c-0.9,1.5-2,2.8-3.5,3.8c-1.5,1.1-3.4,1.8-5.6,2.2c-3.4,0.7-6.3,0.7-8.8,0.2c-2.5-0.5-4.5-1.5-6.1-3     c-1.6-1.4-2.7-3.3-3.5-5.5c-0.7-2.2-1-4.6-1-7.3c0,0,0-0.2,0-0.5c0-0.3,0-1,0-2.1c0-1,0.1-2.5,0.1-4.4c0-1.9,0.1-4.4,0.2-7.6     c0.1-3.2,0.2-7,0.3-11.6l14.1,2.5l-1.3,23.1c-0.1,0.9-0.1,1.6,0,2.3c0.1,0.7,0.3,1.1,0.5,1.4c0.2,0.3,0.3,0.5,0.3,0.5     c0.3,0.4,0.7,0.6,1.1,0.6c0.4,0.1,0.9-0.3,1.4-1.2c0,0,0.1-0.2,0.3-0.6c0.2-0.4,0.3-1,0.5-2c0.2-1,0.2-2.1,0.1-3.5l-1-18.9     L439.7,232.2z"/>
			<path class="st0" d="M460.4,228.1l24.8,37.8l-15.4,5.9l-4.1-6.9l-10.3,0.3l-2,7.4l-14.8-4.8L460.4,228.1z M457.9,257.4l5.9-1     l-2.5-6.7L457.9,257.4z"/>
			<path class="st0" d="M511.7,246.6c-0.5-1.1-1.2-1.9-2.2-2.4c-1-0.5-2.1-0.8-3.4-0.8c-1.2,0-2.5,0.3-3.8,0.8     c-1.3,0.5-2.5,1.3-3.6,2.2c-1.1,1-2,2.1-2.7,3.5c-0.7,1.4-1.1,2.9-1.1,4.7c0,1.6,0.2,2.9,0.8,3.9c0.5,1,1.2,1.7,2.1,2.1     c0.8,0.4,1.8,0.6,2.8,0.6c1,0,2-0.3,3-0.7c1-0.4,1.9-1,2.7-1.8c0.8-0.7,1.4-1.6,1.8-2.5l-7,1.3l0.8-7.9l21.4-2.7     c0.3,2.1,0.2,4.1-0.3,6.1c-0.5,2-1.1,3.9-2,5.5c-0.8,1.7-1.7,3.2-2.6,4.5c-0.9,1.3-1.7,2.3-2.3,3c-0.6,0.7-0.9,1.1-1,1.1     c-1.2,1.2-2.6,2.2-4.3,3.1c-1.7,0.9-3.5,1.6-5.4,2c-1.9,0.5-3.9,0.7-6,0.6c-2.1,0-4-0.4-5.9-1.1c-1.9-0.7-3.6-1.7-5.2-3.1     c-1.6-1.4-2.9-3.2-3.9-5.4c-1.1-2.5-1.8-4.9-1.9-7.4c-0.2-2.4,0-4.8,0.6-7.1s1.5-4.4,2.7-6.5c1.2-2,2.7-3.9,4.4-5.5     c1.7-1.6,3.6-3,5.8-4.2c2.1-1.1,4.4-2,6.7-2.5c0.1,0,0.4,0,1.1-0.1c0.6-0.1,1.6-0.1,2.8,0s2.6,0.3,4.1,0.7     c1.5,0.4,3.1,1.1,4.9,2.1c1.8,1,3.5,2.3,5.3,4L511.7,246.6z"/>
			<path class="st0" d="M524.6,233l27.1-2l-1.5,12.4l-12.3,0.5l0,2.4l9-0.6l-1,8.6l-8.2,0.6l-0.1,2.7l14.1-1.3l-0.2,13.6l-26.3,1.4     L524.6,233z"/>
			<path class="st0" d="M602.1,237.9l-8.6,10.6c-1.8-1.9-3.3-3.1-4.6-3.6c-1.3-0.5-2.5-0.6-3.4-0.4c-1,0.3-1.8,0.9-2.4,1.7     c-0.7,0.9-1.2,1.8-1.6,2.7c-0.4,0.9-0.8,2.1-1.1,3.5c0,0.1,0.1,0.5,0.2,1.3c0.1,0.8,0.5,1.7,1,2.6c0.5,1,1.3,1.7,2.3,2.1     c1,0.5,2.4,0.4,4.1-0.2c1.7-0.6,3.8-2,6.4-4.4l9.6,10.2c-0.5,1-1.3,1.9-2.6,2.9c-1.2,1-2.7,1.9-4.3,2.7c-1.7,0.8-3.5,1.5-5.5,2     c-2,0.5-4,0.9-6.1,0.9c-2.1,0.1-4.1-0.1-6.1-0.7c-2-0.5-3.9-1.4-5.6-2.8c-2.5-1.9-4.3-4-5.5-6.3c-1.2-2.3-1.9-4.7-2.1-7.1     c-0.2-2.4,0-4.9,0.6-7.3c0.6-2.4,1.5-4.7,2.6-6.8c1.1-2.1,2.4-4,3.9-5.8c1.5-1.7,3-3.1,4.5-4.1c1.3-0.7,2.5-1.3,3.7-1.6     c1.1-0.3,2.5-0.6,4.1-0.7c1.6-0.1,3.2,0,5.1,0.4c1.8,0.4,3.7,1.3,5.7,2.5C598.1,233.7,600.1,235.5,602.1,237.9z"/>
			<path class="st0" d="M605.5,232.6l14.8-2.1l-1.3,27.7l12-2.5l0.6,13.8l-25.8,2.6L605.5,232.6z"/>
			<path class="st0" d="M661.5,232.2c0.2,5,0.3,9,0.4,12.1c0.1,3,0.1,5.4,0.2,7s0,2.7,0,3.2v0.8c0,2-0.1,3.9-0.4,5.8     c-0.3,1.8-0.9,3.5-1.8,5c-0.9,1.5-2,2.8-3.5,3.8c-1.5,1.1-3.4,1.8-5.6,2.2c-3.4,0.7-6.3,0.7-8.8,0.2c-2.5-0.5-4.5-1.5-6.1-3     c-1.6-1.4-2.7-3.3-3.5-5.5c-0.7-2.2-1.1-4.6-1-7.3c0,0,0-0.2,0-0.5c0-0.3,0-1,0-2.1c0-1,0.1-2.5,0.1-4.4c0-1.9,0.1-4.4,0.2-7.6     c0.1-3.2,0.2-7,0.3-11.6l14.1,2.5l-1.3,23.1c-0.1,0.9-0.1,1.6,0,2.3c0.1,0.7,0.3,1.1,0.5,1.4c0.2,0.3,0.3,0.5,0.3,0.5     c0.3,0.4,0.7,0.6,1.1,0.6c0.4,0.1,0.9-0.3,1.4-1.2c0,0,0.1-0.2,0.3-0.6c0.2-0.4,0.3-1,0.5-2c0.2-1,0.2-2.1,0.1-3.5l-1-18.9     L661.5,232.2z"/>
			<path class="st0" d="M664.3,232.6c4.6-0.9,8.4-1.5,11.4-1.8c3-0.3,5.4-0.4,7.1-0.4c1.7,0,3.3,0.2,4.7,0.5     c1.3,0.6,2.4,1.2,3.3,1.8c0.9,0.6,1.7,1.4,2.4,2.3c0.8,0.9,1.2,2,1.4,3.2c0.2,1.2-0.1,2.6-0.7,4.2s-2,3.2-4,5.1     c2.8,1.4,4.7,3,5.9,4.6c1.2,1.7,1.8,3.3,1.9,4.9c0.1,1.6-0.1,3.1-0.7,4.6c-0.6,1.5-1.3,2.8-2.1,3.9c-0.8,1.1-1.9,2.3-3.2,3.7     c0,0-0.3,0.2-0.7,0.4c-0.4,0.2-1.2,0.5-2.4,0.9c-1.2,0.3-2.8,0.6-4.8,0.9c-2,0.2-4.6,0.3-7.8,0.3c-3.2,0-7-0.3-11.4-0.8     L664.3,232.6z M684.6,257c0-0.3-0.2-0.7-0.4-1.2c-0.2-0.4-0.6-0.8-1.2-1.1s-1.3-0.3-2.3-0.2c-1,0.1-2.3,0.5-3.9,1.3l0.6,5.2     c1.8,0.2,3.2,0.1,4.2-0.2c1-0.3,1.7-0.7,2.2-1.2c0.4-0.5,0.7-1.1,0.9-2C684.6,257.5,684.6,257.3,684.6,257z M681.7,242     c-0.2-0.3-0.7-0.6-1.4-0.7c-0.7-0.1-1.6,0.1-3,0.6l-0.2,5.2c1,0.2,1.8,0.1,2.5-0.3c0.6-0.3,1.1-0.8,1.5-1.2     c0.3-0.5,0.6-1.1,0.9-1.9C682.1,242.9,681.9,242.3,681.7,242z"/>
		</g>
		<path id="XMLID_25_" class="st1" d="M208.9,95.1c-0.2-0.1-0.2-0.9,0-2.2c0.1-4.8-0.1-9.8-0.6-15c-0.6-5.2-1.7-10-3.5-14.6    c-1.8-4.5-4.4-8.4-7.9-11.7c-3.5-3.3-8-5.5-13.5-6.6c-1.7-0.4-3.4-0.6-5.1-0.7c-1.7-0.1-3.4-0.2-5.1-0.2c-6.3,0-12.6,0.9-18.7,2.8    c-6.2,1.9-11.5,4.5-16,7.8c-0.2,0.2-0.5,0.4-0.7,0.5c-0.2,0.1-0.5,0.2-0.7,0.5c-2.5,2.1-4.3,4-5.6,5.8c-1.2,1.7-1.9,2.6-2,2.6    c-0.2,0.6-0.7,0.9-1.3,0.9c-0.1,0-0.2,0-0.3-0.1c-0.1-0.1-0.2-0.1-0.5-0.1c-0.9-0.4-1.1-1-0.6-2c0-0.1,0.3-1.3,0.8-3.4    c0.6-2.2,0.1-4.8-1.4-7.9c-2.5-2.6-6.1-4.6-10.8-6.1c-4.7-1.5-10.2-2.2-16.5-2.2c-6.1,0-11.6,0.6-16.6,1.9    c-5,1.3-9.1,2.8-12.2,4.5c-0.9,0.6-1.7,1.2-2.5,1.9c-0.8,0.6-1.5,1.2-2.1,1.9c-0.5,0.7-1.1,1.4-1.9,1.9c-2.7,2.7-4.6,4.8-5.6,6.3    c-0.6,1-1.2,1.9-1.7,2.6c-0.4,0.6-0.9,0.9-1.5,0.9c-0.1,0-0.2-0.1-0.4-0.2c-1-0.2-1.4-0.8-1.1-1.7c0-0.1,0.1-1.3,0.4-3.6    c0.2-2.3-0.1-4.6-0.9-7l-0.6-1.1c-0.5-0.5-1.4-1.1-2.7-1.9c-1.3-0.8-3-1.6-5.1-2.5c-2.1-0.9-4.6-1.6-7.6-2.2    c-3-0.6-6.3-0.9-10-0.9c-2.2,0-4.7,0.1-7.5,0.4c-2.8,0.2-5.4,0.7-7.9,1.4c-2.5,0.7-4.6,1.6-6.3,2.8c-1.7,1.2-2.6,2.7-2.6,4.5    L1,178.4c0,3.5,1.6,6.8,4.8,10c2.5,2.5,5.5,4.4,9,5.8c3.5,1.4,7.3,2.1,11.2,2.1h0.7c8.2-0.2,14.5-1.9,18.9-4.9    c4.5-3,6.7-7.3,6.7-12.9l1.7-70.9c0-0.7,0.1-1.2,0.2-1.5c0.6-2.5,1.9-4.5,3.7-6c1.9-1.5,4-2.3,6.5-2.3c2.3,0,4.4,0.7,6.1,2    c1.7,1.4,2.8,3.1,3.3,5.2c0.1,0.2,0.2,0.7,0.2,1.5l2.4,67.2c0.1,7.2,2.7,12.7,7.8,16.6c5.1,3.9,12.2,5.8,21.5,5.8    c5.2,0,9.5-0.7,12.8-2.1c3.3-1.4,6.1-3.3,8.2-5.7c2.1-2.3,3.7-5,4.7-8.1c1-3,1.9-6.2,2.5-9.4l0.2-0.6l-0.2-62.5    c0-0.6,0.1-1,0.2-1.3c0.5-2.7,1.7-4.9,3.6-6.6c1.9-1.7,4.1-2.5,6.6-2.5c2.5,0,4.6,0.8,6.5,2.4c1.9,1.6,3,3.6,3.5,6.1h0.2    c0.1,1.1,0.3,2.8,0.5,5.1c0.2,2.3,0.3,5.8,0.5,10.6c0.1,4.8,0.2,11,0.3,18.8c0.1,7.8,0.1,17.7,0.1,29.7v1.7    c0,5.1,0.9,9.2,2.7,12.3c1.8,3.2,4.1,5.6,7,7.3c2.8,1.7,6,2.9,9.6,3.6c3.5,0.7,7,1,10.3,1c4.9,0,8.9-0.5,12-1.6    c3-1,5.4-2.6,7.1-4.5c1.7-2,2.9-4.4,3.5-7.2c0.6-2.8,0.9-6.1,0.9-9.8c0-11.4,0-21.2,0-29.4c0-8.2,0-15.2,0-20.9    c0-5.7,0-10.3,0-13.8c0-3.5,0-6.3,0-8.3c0-2,0-3.3,0-4.1C208.9,95.8,208.9,95.3,208.9,95.1z"/>
		<path id="XMLID_20_" class="st2" d="M256.1,14.1c2.6,0.9,5,2.1,7.2,3.6c2.2,1.5,4.3,3.4,6.1,5.5c1.9,2.1,3.3,4.5,4.5,7    c2.5,6.7,2.5,12.7,0,18.2c-2.7,4.9-6.7,8.3-11.9,10.2c-1.7,0.5-3.7,0.8-6,1c-2.3,0.2-4.9,0.3-7.7,0.3c-4.3,0-8.5-0.3-12.6-0.9    c-4.1-0.6-7.8-1.5-11.1-2.6c-3.3-1.1-6.1-2.4-8.3-4c-2.2-1.5-3.7-3.2-4.5-5.1c-1.1-2.5-0.7-5.4,1.1-8.9c1.2-2.6,3-5.2,5.2-7.9    c2.2-2.7,4.7-5.1,7.4-7.3c2.7-2.2,5.5-4.2,8.3-5.8c2.8-1.7,5.5-2.9,8-3.6c1-0.4,2-0.6,3.2-0.7c1.1-0.1,2.2-0.2,3.3-0.2    C250.9,12.8,253.5,13.3,256.1,14.1z M247.6,198.2c8.5,0,15.2-0.7,19.9-2c4.8-1.4,7.5-2.7,8.1-3.9L275.4,94c0-1.4-0.7-3.1-2.2-5.2    c-1.5-2.1-3.6-4.1-6.3-6.1c-2.7-2-5.9-3.7-9.6-5.1c-3.7-1.4-7.7-2.1-12.2-2.1h-0.4c-5.4,0-10,0.7-13.6,2c-3.6,1.4-6.6,3-8.8,5    c-2.2,2-3.8,4-4.7,6.1c-0.9,2.1-1.4,3.9-1.4,5.4L216,193c0,0.4,0.5,0.8,1.5,1.4c1,0.6,2.7,1.1,5,1.7c2.3,0.6,5.5,1.1,9.6,1.5    c4,0.4,9.1,0.6,15.1,0.6H247.6z"/>
		<path id="XMLID_19_" class="st3" d="M416.2,133.7c0.4-2.8,0.7-6.1,1.1-9.6c0.4-3.6,0.7-7.4,0.9-11.3c0.2-2.1,0.4-4,0.5-5.8    c0.1-1.7,0.2-3.6,0.3-5.6v-6.5c-0.1-1.2-0.2-2.5-0.3-3.7c-0.1-1.2-0.2-2.8-0.5-4.6c-0.1-0.2-0.2-0.5-0.2-0.6    c0-0.2-0.1-0.4-0.2-0.7c-0.3-1-0.5-2-0.7-3c-0.2-1-0.7-2.5-1.6-4.6l-1.9-3.7c-0.9-1.6-1.7-3.1-2.6-4.5c-0.9-1.4-2-2.8-3.3-4.3    c-4.1-4.8-8.8-8.8-14.3-12.1c-5.7-3.2-11-5.4-16-6.7c-5-1.2-9.5-2.1-13.4-2.6c-4.3-0.4-8.7-0.5-13.2-0.4c-4.5,0.1-9,0.5-13.7,1.1    c-1.7,0.2-3.4,0.6-5.1,0.9c-1.7,0.4-3.3,0.7-4.9,1.1c-0.1,0.1-0.3,0.2-0.6,0.2c-1.7,0.6-3.1,1.4-4.1,2.3c-1,0.9-1.8,1.9-2.3,2.8    c-0.6,0.9-0.9,1.8-1,2.7c-0.1,0.9-0.2,1.5-0.2,1.9V57c0,0.9-0.5,1.3-1.5,1.3c-1,0-1.5-0.4-1.5-1.3v-0.2c0-0.2-0.1-0.7-0.3-1.4    c-0.2-0.7-0.5-1.4-0.9-2c-0.4-0.7-1.1-1.3-1.9-1.9c-0.8-0.6-1.9-1-3.2-1.3h-5c-2.1,0-4.3,0.1-6.5,0.4c-2.2,0.2-4.4,0.6-6.4,1.2    c-2,0.6-3.9,1.2-5.7,2c-1.7,0.8-3.1,1.7-4.1,2.7c-0.9,0.9-1.3,1.9-1.3,3.2l3.9,120.2c0,1.9,0.6,3.7,1.9,5.7    c1.3,1.9,3.1,3.6,5.4,5.2c2.3,1.5,5,2.8,8.1,3.7c3.1,0.9,6.5,1.4,10.2,1.4h1.1c9.8-0.4,16.8-2.8,21-7.2c1.7-1.9,2.8-3.8,3.3-5.8    c0.5-2,0.7-3.5,0.6-4.6l-1.9-73.1c-0.1-1.9,0.4-3.5,1.5-4.9c1.1-1.4,2.5-2.4,4.3-2.9c3.1-0.7,6.3-1.2,9.6-1.5    c3.3-0.2,6.3-0.2,8.9,0c0.2,0,0.5,0,0.8,0.1c0.3,0.1,0.6,0.1,0.8,0.1c1.9,0.4,3.4,1.3,4.7,2.9c1.3,1.5,1.9,3.3,1.8,5.3    c-0.1,0.7-0.2,1.5-0.2,2.3c0,0.8-0.1,1.7-0.2,2.7c-0.2,2.6-0.5,5.4-0.7,8.5c-0.3,3.1-0.6,6.6-1.1,10.4c-0.6,6.1-1.3,12.1-2,18.2    c-0.7,6.1-1.5,12.2-2.4,18.6l-0.4,2.8c-0.4,3.2-0.1,6.4,0.8,9.6c0.9,3.2,2.5,6.2,4.7,9.1c2.2,2.8,4.8,5.1,7.7,6.8    c2.9,1.7,6,2.6,9.2,2.7h2.2c8.5,0,15-2,19.3-5.9c1.9-1.7,3.4-4,4.7-6.8c1.3-2.8,2.1-5.8,2.5-9l0.7-4.8c0.7-5.9,1.5-11.8,2.3-17.7    C414.9,145.7,415.6,139.7,416.2,133.7z"/>
		<path id="XMLID_15_" class="st4" d="M466.6,14.1c2.6,0.9,5,2.1,7.2,3.6c2.2,1.5,4.3,3.4,6.1,5.5c1.9,2.1,3.3,4.5,4.5,7    c2.5,6.7,2.5,12.7,0,18.2c-2.7,4.9-6.7,8.3-11.9,10.2c-1.7,0.5-3.7,0.8-6,1c-2.3,0.2-4.9,0.3-7.7,0.3c-4.3,0-8.5-0.3-12.6-0.9    c-4.1-0.6-7.8-1.5-11.1-2.6c-3.3-1.1-6.1-2.4-8.3-4c-2.2-1.5-3.7-3.2-4.5-5.1c-1.1-2.5-0.7-5.4,1.1-8.9c1.2-2.6,3-5.2,5.2-7.9    c2.2-2.7,4.7-5.1,7.4-7.3c2.7-2.2,5.5-4.2,8.3-5.8c2.8-1.7,5.5-2.9,8-3.6c1-0.4,2-0.6,3.2-0.7c1.1-0.1,2.2-0.2,3.3-0.2    C461.4,12.8,464,13.3,466.6,14.1z M458.1,198.2c8.5,0,15.2-0.7,19.9-2c4.8-1.4,7.5-2.7,8.1-3.9L485.9,94c0-1.4-0.7-3.1-2.2-5.2    c-1.5-2.1-3.6-4.1-6.3-6.1c-2.7-2-5.9-3.7-9.6-5.1c-3.6-1.4-7.7-2.1-12.2-2.1h-0.4c-5.4,0-10,0.7-13.6,2c-3.6,1.4-6.6,3-8.8,5    c-2.2,2-3.8,4-4.7,6.1c-0.9,2.1-1.4,3.9-1.4,5.4l-0.2,99.1c0,0.4,0.5,0.8,1.5,1.4c1,0.6,2.7,1.1,5,1.7c2.3,0.6,5.5,1.1,9.6,1.5    c4,0.4,9.1,0.6,15.1,0.6H458.1z"/>
		<path id="XMLID_5_" class="st2" d="M641.3,16.4c-0.3-1.4-0.8-2.9-1.5-4.5c-0.7-1.7-1.7-3.2-3.1-4.7c-2.3-2.5-5.4-4.3-9.1-5.4    c-3.7-1.1-8.2-1.7-13.4-1.7H614c-1.9,0-4.1,0.2-6.8,0.6c-2.7,0.4-5.3,1.4-7.8,3c-2.5,1.5-4.7,3.9-6.5,7c-1.8,3.1-2.7,7.2-2.7,12.4    v12.4c0,0.6-0.1,1.1-0.2,1.6c-0.1,0.4-0.3,1-0.6,1.6c4.8,1.4,9,3,12.4,4.8c3.5,1.9,6,3.3,7.6,4.3c-3.6-1.2-7.5-2.3-11.8-3.2    c-4.3-0.9-8.8-1.5-13.4-1.9c-0.5,0.2-1.2,0.4-2,0.4h-0.6h-1.1c-22.1,0-41.5,5.7-58.1,17.1c-4.8,3.6-9.2,7.7-13.3,12.3    c-4,4.6-7.3,9.6-9.7,14.7c-2.6,5.3-4.5,11-5.6,17c-1.1,6-1.5,12.1-1.3,18.3c0.5,5.9,1.4,11.4,2.8,16.4c1.4,5,3.3,10.3,5.9,15.9    c2.6,5.3,5.8,10.3,9.7,14.8c3.9,4.6,8.2,8.5,12.9,11.9c4.6,3.3,9.4,6.1,14.5,8.3c5.1,2.2,10.6,3.9,16.5,5.3    c10.4,2,20.8,2.4,31.4,1.1c4.5-0.6,8.5-1.8,12.2-3.5c2.8-1.2,5.4-1,7.6,0.6c3.1,2,6.2,3,9.5,3c6.1,0,10.8-0.9,14.1-2.6    c3.3-1.7,5.8-4.3,7.5-7.6c1.7-3.3,2.7-7.4,3.2-12.1c0.4-4.7,0.6-10,0.6-16l0.4-135.4c0-0.1,0.1-0.2,0.2-0.4    c0.1-0.1,0.2-0.2,0.2-0.4c0-0.1,0-0.7,0-1.8C641.8,19,641.6,17.8,641.3,16.4z M590.2,137.9c0,2.2-0.7,4.1-2.2,5.5    c-1.5,1.4-3.3,2.2-5.4,2.3h-2.2c-1,0.1-1.9,0.2-2.9,0.4c-0.9,0.1-1.9,0.2-2.9,0.2c-4.1,0-8-0.6-11.7-1.7c-3.7-1.1-6.7-2.7-9.1-4.6    c-2.7-1.9-4.9-4.5-6.7-8c-0.7-1.4-1.5-3.3-2.2-5.9c-0.7-2.6-1.1-4.9-1.1-7c0-1.9,0.1-3.5,0.4-5c0.2-1.5,0.7-2.9,1.5-4.3    c0.7-1.7,1.7-3.2,2.9-4.4c1.2-1.2,2.6-2.3,4.2-3.4c3.2-2.5,7.4-4.4,12.5-5.8c5.1-1.4,10.5-2,16-1.9h0.2l0.2,0.4h0.6    c2.3,0,4.2,0.7,5.6,2c1.6,1.6,2.4,3.4,2.4,5.4V137.9z"/>
		<path id="XMLID_2_" class="st3" d="M690.7,13.7c2.6,0.9,5,2.1,7.2,3.6c2.2,1.5,4.3,3.4,6.1,5.5c1.9,2.1,3.3,4.5,4.5,7    c2.5,6.7,2.5,12.7,0,18.2c-2.7,4.9-6.7,8.3-11.9,10.2c-1.7,0.5-3.7,0.8-6,1c-2.3,0.2-4.9,0.3-7.7,0.3c-4.3,0-8.5-0.3-12.6-0.9    c-4.1-0.6-7.8-1.5-11.1-2.6c-3.3-1.1-6.1-2.4-8.3-4c-2.2-1.5-3.7-3.2-4.5-5.1c-1.1-2.5-0.7-5.4,1.1-8.9c1.2-2.6,3-5.2,5.2-7.9    c2.2-2.7,4.7-5.1,7.4-7.3c2.7-2.2,5.5-4.2,8.3-5.8c2.8-1.7,5.5-2.9,8-3.6c1-0.4,2-0.6,3.2-0.7c1.1-0.1,2.2-0.2,3.3-0.2    C685.5,12.4,688.1,12.8,690.7,13.7z M682.1,196.4c8.5,0,15.2-0.7,19.9-2c4.8-1.4,7.5-2.7,8.1-3.9l-0.2-98.3c0-1.4-0.7-3.1-2.2-5.2    c-1.5-2.1-3.6-4.1-6.3-6.1c-2.7-2-5.9-3.7-9.6-5.1c-3.6-1.4-7.7-2.1-12.2-2.1h-0.4c-5.4,0-10,0.7-13.6,2c-3.6,1.4-6.6,3-8.8,5    c-2.2,2-3.8,4-4.7,6.1c-0.9,2.1-1.4,3.9-1.4,5.4l-0.2,99.1c0,0.4,0.5,0.8,1.5,1.4c1,0.6,2.7,1.1,5,1.7c2.3,0.6,5.5,1.1,9.6,1.5    c4,0.4,9.1,0.6,15.1,0.6H682.1z"/>
		<path id="XMLID_1_" class="st5" d="M819.1,159.5c-0.9-4-2.1-6.8-3.7-8.3c-1.1-1.1-2.6-1.9-4.5-2.5c-1.9-0.6-3.9-1-6.2-1.3    c-2.3-0.3-4.7-0.5-7.1-0.7c-2.5-0.1-4.8-0.2-7-0.2l-15.1-0.4c-6,0.7-13.5,2.4-17.5,4.8c0,0,7-8.4,16.3-9.3c0.4,0,0.8-0.1,1.2-0.1    l0.1-7.1c0.1-12.4,0.2-23,0.3-31.9c0.1-8.9,0.1-16.5,0.1-22.8c0-6.3,0-11.4,0-15.4c0-4,0-7.1,0-9.5c0-2.3-0.9-4.5-2.6-6.4    c-1.7-1.9-4.1-3.6-7-4.9c-2.9-1.4-6.3-2.4-10.1-3.2c-3.8-0.8-7.9-1.2-12.2-1.2c-9.3,0-15.9,1.4-19.9,4.3c-1.2,0.9-2.4,2.1-3.5,3.6    c-1.1,1.5-1.7,4.1-1.7,7.7c0,5.8,0,12.5-0.1,20c-0.1,7.5-0.2,16.9-0.3,28c0,6.2,0,12.3-0.1,18.5c-0.1,6.1-0.1,11.7-0.1,16.8    c0,5.1,0,9.5,0,13.2s0,6.3,0,7.8c0,0.7,0,1.5,0,2.3c0,0.8-0.1,1.7-0.2,2.7c-0.3,3.1-0.3,6.1-0.3,8.9c0.1,2.8,0.5,5.5,1.3,8    c0.8,2.5,2,4.7,3.7,6.6c1.7,1.9,4.1,3.4,7.3,4.5c1.9,0.5,6,0.9,12.4,1.2c6.4,0.3,15.8,0.5,28.2,0.5c4,0,7.8-0.1,11.5-0.2    c3.7-0.1,7.1-0.2,10.2-0.4c1.9,0,3.6,0,5.1,0c1.5,0,3.3,0,5.3,0c1.5,0,3.3-0.4,5.6-1.2c2.2-0.8,4.2-1.9,5.9-3.2    c3.6-3.1,5.5-8.2,5.8-15.2C820.3,168.2,819.9,163.5,819.1,159.5z"/>
	</g>
	<g class="st6">
		<defs>
			<rect id="SVGID_1_" x="0.8" y="0.4" class="st6" width="819.2" height="198.1"/>
		</defs>
		<clipPath id="SVGID_2_">
			<use xlink:href="#SVGID_1_" style="overflow:visible;"/>
		</clipPath>
		<path class="st7" d="M208.8,95.4c-0.2-0.1-0.2-0.9,0-2.2c0.1-4.8-0.1-9.8-0.6-15s-1.7-10-3.5-14.6c-1.8-4.5-4.4-8.4-7.9-11.7    c-3.5-3.3-8-5.5-13.5-6.6c-1.7-0.4-3.4-0.6-5.1-0.7c-1.7-0.1-3.4-0.2-5.1-0.2c-6.3,0-12.6,0.9-18.7,2.8c-6.2,1.9-11.5,4.5-16,7.8    c-0.2,0.2-0.5,0.4-0.7,0.5c-0.2,0.1-0.5,0.2-0.7,0.5c-2.5,2.1-4.3,4-5.6,5.8c-1.2,1.7-1.9,2.6-2,2.6c-0.2,0.6-0.7,0.9-1.3,0.9    c-0.1,0-0.2,0-0.3-0.1c-0.1-0.1-0.2-0.1-0.5-0.1c-0.9-0.4-1.1-1.1-0.6-2c0-0.1,0.3-1.3,0.8-3.4c0.6-2.2,0.1-4.8-1.4-7.9    c-2.5-2.6-6.1-4.6-10.8-6.1c-4.7-1.5-10.2-2.2-16.5-2.2c-6.1,0-11.6,0.6-16.6,1.9c-5,1.3-9.1,2.8-12.2,4.5    c-0.9,0.6-1.7,1.2-2.5,1.9c-0.8,0.6-1.5,1.2-2.1,1.9c-0.5,0.7-1.1,1.4-1.9,1.9C60.8,58,59,60.1,58,61.6c-0.6,1-1.2,1.9-1.7,2.6    c-0.4,0.6-0.9,0.9-1.5,0.9c-0.1,0-0.2-0.1-0.4-0.2c-1-0.2-1.4-0.8-1.1-1.7c0-0.1,0.1-1.3,0.4-3.6c0.2-2.3-0.1-4.6-0.9-7l-0.6-1.1    c-0.5-0.5-1.4-1.1-2.7-1.9c-1.3-0.8-3-1.6-5.1-2.5c-2.1-0.9-4.6-1.6-7.6-2.2c-3-0.6-6.3-0.9-10-0.9c-2.2,0-4.7,0.1-7.5,0.4    c-2.8,0.2-5.4,0.7-7.9,1.4c-2.5,0.7-4.6,1.6-6.3,2.8c-1.7,1.2-2.6,2.7-2.6,4.5L0.8,178.7c0,3.5,1.6,6.8,4.8,10    c2.5,2.5,5.5,4.4,9,5.8c3.5,1.4,7.3,2.1,11.2,2.1h0.7c8.2-0.2,14.5-1.9,18.9-4.9c4.5-3,6.7-7.3,6.7-12.9l1.7-70.9    c0-0.7,0.1-1.2,0.2-1.5c0.6-2.5,1.9-4.5,3.7-6c1.9-1.5,4-2.3,6.5-2.3c2.3,0,4.4,0.7,6.1,2c1.7,1.4,2.8,3.1,3.3,5.2    c0.1,0.2,0.2,0.7,0.2,1.5l2.4,67.2c0.1,7.2,2.7,12.7,7.8,16.6c5.1,3.9,12.2,5.8,21.5,5.8c5.2,0,9.5-0.7,12.8-2.1    c3.3-1.4,6.1-3.3,8.2-5.7c2.1-2.3,3.7-5,4.7-8.1c1.1-3,1.9-6.1,2.5-9.4l0.2-0.6l-0.2-62.5c0-0.6,0.1-1,0.2-1.3    c0.5-2.7,1.7-4.9,3.6-6.6c1.9-1.7,4.1-2.5,6.6-2.5c2.5,0,4.6,0.8,6.5,2.4c1.9,1.6,3,3.7,3.5,6.1h0.2c0.1,1.1,0.3,2.8,0.5,5.1    c0.2,2.3,0.3,5.8,0.5,10.6c0.1,4.8,0.2,11,0.3,18.8c0.1,7.8,0.1,17.7,0.1,29.7v1.7c0,5.1,0.9,9.2,2.7,12.3c1.8,3.2,4.1,5.6,7,7.3    c2.8,1.7,6,2.9,9.6,3.6c3.5,0.7,7,1,10.3,1c4.9,0,8.9-0.5,12-1.6c3-1,5.4-2.6,7.1-4.5c1.7-2,2.9-4.4,3.5-7.2    c0.6-2.8,0.9-6.1,0.9-9.8v-29.4V123v-13.8v-8.3v-4.1V95.4z"/>
		<path class="st8" d="M256,14.4c2.6,0.9,5,2.1,7.2,3.6c2.2,1.5,4.3,3.4,6.1,5.5c1.9,2.1,3.3,4.5,4.5,7c2.5,6.7,2.5,12.7,0,18.2    c-2.7,4.9-6.7,8.3-11.9,10.2c-1.7,0.5-3.7,0.8-6,1c-2.3,0.2-4.9,0.3-7.7,0.3c-4.3,0-8.5-0.3-12.6-0.9c-4.1-0.6-7.8-1.5-11.1-2.6    c-3.3-1.1-6.1-2.4-8.3-4c-2.2-1.5-3.7-3.2-4.5-5.1c-1.1-2.5-0.7-5.4,1.1-8.9c1.2-2.6,3-5.2,5.2-7.9c2.2-2.7,4.7-5.1,7.4-7.3    c2.7-2.2,5.5-4.2,8.3-5.8c2.8-1.7,5.5-2.9,8-3.6c1-0.4,2-0.6,3.2-0.7c1.1-0.1,2.2-0.2,3.3-0.2C250.8,13.1,253.4,13.6,256,14.4     M247.4,198.5c8.5,0,15.2-0.7,19.9-2c4.8-1.4,7.4-2.7,8.1-3.9l-0.2-98.3c0-1.4-0.7-3.1-2.2-5.2c-1.5-2.1-3.6-4.1-6.3-6.1    c-2.7-2-5.9-3.7-9.6-5.1c-3.6-1.4-7.7-2.1-12.2-2.1h-0.4c-5.4,0-10,0.7-13.6,2c-3.7,1.4-6.6,3-8.8,5c-2.2,2-3.8,4-4.7,6.1    c-0.9,2.1-1.4,3.9-1.4,5.4l-0.2,99.1c0,0.4,0.5,0.8,1.5,1.4c1,0.6,2.7,1.1,5,1.7c2.3,0.6,5.5,1.1,9.6,1.5c4,0.4,9.1,0.6,15.1,0.6    H247.4z"/>
		<path class="st9" d="M416.1,134c0.4-2.8,0.7-6.1,1.1-9.6c0.4-3.6,0.7-7.4,0.9-11.3c0.2-2.1,0.4-4,0.5-5.8c0.1-1.7,0.2-3.6,0.3-5.6    v-6.5c-0.1-1.2-0.2-2.5-0.3-3.7c-0.1-1.2-0.2-2.8-0.5-4.6c-0.1-0.2-0.2-0.5-0.2-0.6c0-0.2-0.1-0.4-0.2-0.7c-0.3-1-0.5-2-0.7-3    c-0.2-1-0.7-2.5-1.6-4.6l-1.9-3.7c-0.9-1.6-1.7-3.1-2.6-4.5c-0.9-1.4-2-2.8-3.3-4.3c-4.1-4.8-8.8-8.8-14.3-12.1    c-5.7-3.2-11-5.4-16-6.7c-5-1.2-9.5-2.1-13.4-2.6c-4.3-0.4-8.7-0.5-13.2-0.4c-4.5,0.1-9,0.5-13.7,1.1c-1.7,0.2-3.4,0.6-5.1,0.9    c-1.7,0.4-3.3,0.7-4.9,1.1c-0.1,0.1-0.3,0.2-0.6,0.2c-1.7,0.6-3.1,1.4-4.1,2.3c-1,0.9-1.8,1.9-2.3,2.8c-0.6,0.9-0.9,1.8-1,2.7    c-0.1,0.9-0.2,1.5-0.2,1.9v0.6c0,0.9-0.5,1.3-1.5,1.3c-1,0-1.5-0.4-1.5-1.3v-0.2c0-0.2-0.1-0.7-0.3-1.4c-0.2-0.7-0.5-1.4-0.9-2    c-0.4-0.7-1.1-1.3-1.9-1.9c-0.8-0.6-1.9-1-3.2-1.3h-5c-2.1,0-4.3,0.1-6.5,0.4c-2.2,0.2-4.4,0.7-6.4,1.2c-2,0.6-3.9,1.2-5.7,2    c-1.7,0.8-3.1,1.7-4.1,2.7c-0.9,0.9-1.3,1.9-1.3,3.2l3.9,120.2c0,1.9,0.6,3.7,1.9,5.7c1.3,1.9,3.1,3.6,5.4,5.2    c2.3,1.5,5,2.8,8.1,3.7c3.1,0.9,6.5,1.4,10.2,1.4h1.1c9.8-0.4,16.8-2.8,21-7.2c1.7-1.9,2.8-3.8,3.3-5.8c0.5-2,0.7-3.5,0.6-4.6    l-1.9-73.1c-0.1-1.9,0.4-3.5,1.5-4.9c1.1-1.4,2.5-2.4,4.3-2.9c3.1-0.7,6.3-1.2,9.6-1.5c3.3-0.2,6.3-0.2,8.9,0c0.2,0,0.5,0,0.8,0.1    c0.3,0.1,0.6,0.1,0.8,0.1c1.9,0.4,3.4,1.3,4.7,2.9c1.3,1.5,1.9,3.3,1.8,5.3c-0.1,0.7-0.2,1.5-0.2,2.3c0,0.8-0.1,1.7-0.2,2.7    c-0.2,2.6-0.5,5.4-0.7,8.5c-0.3,3.1-0.6,6.6-1.1,10.4c-0.6,6.1-1.3,12.1-2,18.2c-0.7,6.1-1.5,12.2-2.4,18.6l-0.4,2.8    c-0.4,3.2-0.1,6.4,0.8,9.6c0.9,3.2,2.5,6.2,4.7,9.1c2.2,2.8,4.8,5.1,7.7,6.8c2.9,1.7,6,2.6,9.2,2.7h2.2c8.5,0,15-2,19.3-5.9    c1.9-1.7,3.4-4,4.7-6.8c1.3-2.8,2.1-5.8,2.5-9l0.7-4.8c0.7-5.9,1.5-11.8,2.3-17.7C414.8,146,415.5,140,416.1,134"/>
		<path class="st10" d="M466.4,14.4c2.6,0.9,5,2.1,7.2,3.6c2.2,1.5,4.3,3.4,6.1,5.5c1.9,2.1,3.3,4.5,4.5,7c2.5,6.7,2.5,12.7,0,18.2    c-2.7,4.9-6.7,8.3-11.9,10.2c-1.7,0.5-3.7,0.8-6,1c-2.3,0.2-4.9,0.3-7.7,0.3c-4.3,0-8.5-0.3-12.6-0.9c-4.1-0.6-7.8-1.5-11.1-2.6    c-3.3-1.1-6.1-2.4-8.3-4c-2.2-1.5-3.7-3.2-4.5-5.1c-1.1-2.5-0.7-5.4,1.1-8.9c1.2-2.6,3-5.2,5.2-7.9c2.2-2.7,4.7-5.1,7.4-7.3    c2.7-2.2,5.5-4.2,8.3-5.8c2.8-1.7,5.5-2.9,8-3.6c1-0.4,2-0.6,3.2-0.7c1.1-0.1,2.2-0.2,3.3-0.2C461.2,13.1,463.8,13.6,466.4,14.4     M457.9,198.5c8.5,0,15.2-0.7,19.9-2c4.8-1.4,7.5-2.7,8.1-3.9l-0.2-98.3c0-1.4-0.7-3.1-2.2-5.2c-1.5-2.1-3.6-4.1-6.3-6.1    c-2.7-2-5.9-3.7-9.6-5.1c-3.6-1.4-7.7-2.1-12.2-2.1h-0.4c-5.4,0-10,0.7-13.6,2c-3.7,1.4-6.6,3-8.8,5c-2.2,2-3.8,4-4.7,6.1    c-0.9,2.1-1.4,3.9-1.4,5.4l-0.2,99.1c0,0.4,0.5,0.8,1.5,1.4c1,0.6,2.7,1.1,5,1.7c2.4,0.6,5.5,1.1,9.6,1.5c4,0.4,9.1,0.6,15.1,0.6    H457.9z"/>
		<path class="st11" d="M641.2,16.7c-0.3-1.4-0.8-2.9-1.5-4.5c-0.7-1.7-1.7-3.2-3.1-4.7c-2.3-2.5-5.4-4.3-9.1-5.4    c-3.7-1.1-8.2-1.7-13.4-1.7h-0.4c-1.9,0-4.1,0.2-6.8,0.6c-2.7,0.4-5.3,1.4-7.8,3c-2.5,1.5-4.7,3.9-6.5,7    c-1.8,3.1-2.7,7.2-2.7,12.4v12.4c0,0.6-0.1,1.1-0.2,1.6c-0.1,0.4-0.3,1-0.6,1.6c4.8,1.4,9,3,12.4,4.8c3.5,1.9,6,3.3,7.6,4.3    c-3.6-1.2-7.5-2.3-11.8-3.2c-4.3-0.9-8.8-1.5-13.4-1.9c-0.5,0.2-1.2,0.4-2,0.4h-0.6h-1.1c-22.1,0-41.5,5.7-58.1,17.1    c-4.8,3.6-9.2,7.7-13.3,12.3c-4,4.6-7.3,9.6-9.7,14.7c-2.6,5.3-4.5,11-5.6,17c-1.1,6-1.5,12.1-1.3,18.3c0.5,5.9,1.4,11.4,2.8,16.4    c1.4,5,3.3,10.3,5.9,15.9c2.6,5.3,5.8,10.3,9.7,14.8c3.9,4.6,8.2,8.5,12.9,11.9c4.6,3.3,9.4,6.1,14.5,8.3    c5.1,2.2,10.6,3.9,16.5,5.3c10.4,2,20.8,2.3,31.4,1.1c4.5-0.6,8.5-1.8,12.2-3.5c2.8-1.2,5.4-1,7.6,0.6c3.1,2,6.2,3,9.5,3    c6.1,0,10.8-0.9,14.1-2.6c3.3-1.7,5.8-4.3,7.5-7.6c1.7-3.3,2.7-7.4,3.2-12.1c0.4-4.7,0.6-10,0.6-16l0.4-135.4    c0-0.1,0.1-0.2,0.2-0.4c0.1-0.1,0.2-0.2,0.2-0.4v-1.8C641.6,19.3,641.5,18.1,641.2,16.7 M590.1,138.2c0,2.2-0.7,4.1-2.2,5.5    c-1.5,1.4-3.3,2.2-5.4,2.3h-2.2c-1,0.1-1.9,0.2-2.9,0.4c-0.9,0.1-1.9,0.2-2.9,0.2c-4.1,0-8-0.6-11.7-1.7c-3.7-1.1-6.7-2.7-9.1-4.6    c-2.7-1.9-4.9-4.5-6.7-8c-0.7-1.4-1.5-3.3-2.2-5.9c-0.7-2.6-1.1-4.9-1.1-7.1c0-1.9,0.1-3.5,0.4-5c0.2-1.5,0.7-2.9,1.5-4.3    c0.7-1.7,1.7-3.2,2.9-4.4c1.2-1.2,2.6-2.3,4.2-3.4c3.2-2.5,7.4-4.4,12.5-5.8c5.1-1.4,10.5-2,16-1.9h0.2l0.2,0.4h0.6    c2.3,0,4.2,0.7,5.6,2c1.6,1.6,2.4,3.4,2.4,5.4V138.2z"/>
		<path class="st9" d="M690.5,14c2.6,0.9,5,2.1,7.2,3.6c2.2,1.5,4.3,3.4,6.1,5.5c1.9,2.1,3.3,4.5,4.5,7c2.5,6.7,2.5,12.7,0,18.2    c-2.7,4.9-6.7,8.3-11.9,10.2c-1.7,0.5-3.7,0.8-6,1c-2.3,0.2-4.9,0.3-7.7,0.3c-4.3,0-8.5-0.3-12.6-0.9c-4.1-0.6-7.8-1.5-11.1-2.6    c-3.3-1.1-6.1-2.4-8.3-4c-2.2-1.5-3.7-3.2-4.5-5.1c-1.1-2.5-0.7-5.4,1.1-8.9c1.2-2.6,3-5.2,5.2-7.9c2.2-2.7,4.7-5.1,7.4-7.3    c2.7-2.2,5.5-4.2,8.3-5.8c2.8-1.7,5.5-2.9,8-3.6c1-0.4,2-0.6,3.2-0.7c1.1-0.1,2.2-0.2,3.3-0.2C685.3,12.7,687.9,13.1,690.5,14     M682,196.7c8.5,0,15.2-0.7,19.9-2c4.8-1.4,7.5-2.7,8.1-3.9l-0.2-98.3c0-1.4-0.7-3.1-2.2-5.2c-1.5-2.1-3.6-4.1-6.3-6.1    c-2.7-2-5.9-3.7-9.6-5.1c-3.6-1.4-7.7-2.1-12.2-2.1h-0.4c-5.4,0-10,0.7-13.6,2c-3.6,1.4-6.6,3-8.8,5c-2.2,2-3.8,4-4.7,6.1    c-0.9,2.1-1.4,3.9-1.4,5.4l-0.2,99.1c0,0.4,0.5,0.8,1.5,1.4c1,0.6,2.7,1.1,5,1.7c2.4,0.6,5.5,1.1,9.6,1.5c4,0.4,9.1,0.6,15.1,0.6    H682z"/>
		<path class="st12" d="M818.9,159.8c-0.9-4-2.1-6.8-3.7-8.3c-1.1-1.1-2.6-1.9-4.5-2.5c-1.9-0.6-3.9-1-6.2-1.3    c-2.3-0.3-4.7-0.5-7.1-0.7c-2.5-0.1-4.8-0.2-7-0.2l-15.1-0.4c-6,0.7-13.5,2.4-17.5,4.8c0,0,7-8.4,16.3-9.3c0.4,0,0.8-0.1,1.2-0.1    l0.1-7.1c0.1-12.4,0.2-23,0.3-31.9c0.1-8.9,0.1-16.5,0.1-22.8V64.7v-9.5c0-2.3-0.9-4.5-2.6-6.4c-1.7-1.9-4.1-3.6-7-4.9    c-2.9-1.4-6.3-2.4-10.1-3.2c-3.8-0.8-7.9-1.2-12.2-1.2c-9.3,0-15.9,1.4-19.8,4.3c-1.2,0.9-2.4,2.1-3.5,3.6    c-1.1,1.5-1.7,4.1-1.7,7.7c0,5.8,0,12.5-0.1,20c-0.1,7.5-0.2,16.9-0.3,28c0,6.2,0,12.3-0.1,18.5c-0.1,6.1-0.1,11.7-0.1,16.8v13.2    v7.8v2.3c0,0.8-0.1,1.7-0.2,2.7c-0.3,3.1-0.3,6.1-0.3,8.9c0.1,2.8,0.5,5.5,1.3,8c0.8,2.5,2,4.7,3.7,6.6c1.7,1.9,4.1,3.4,7.3,4.5    c1.9,0.5,6,0.9,12.4,1.2c6.4,0.3,15.8,0.5,28.2,0.5c4,0,7.8-0.1,11.5-0.2c3.7-0.1,7.1-0.2,10.2-0.4h5.1h5.3c1.5,0,3.3-0.4,5.6-1.2    c2.2-0.8,4.2-1.9,5.9-3.2c3.6-3.1,5.5-8.2,5.8-15.2C820.1,168.5,819.8,163.8,818.9,159.8"/>
	</g>
</g>
</svg>