<svg width="571" height="156" viewBox="0 0 571 156" fill="none" xmlns="http://www.w3.org/2000/svg">
    <path d="M18.5 82.5L19.5 74L39 139L13 155.5L7 154L4.5 152L1 148L0.5 142.5L18.5 82.5Z" fill="#a1363d"/>
    <path
        d="M14 0L111.5 62L113 64L113.9 65.5L115.7 67.5L116.5 69.5L117.5 72L118 74.5V77V82L116.5 87.5L108.5 96L29 145.5L30 141L32 137.5L34 132.5L34.7255 126.5L0 11.5L1 6.5L3.5 3L8 0.5L14 0Z"
        fill="#eb515b"/>
    <path
        d="M185.32 45.2H157.48V32H228.76V45.2H200.92V116H185.32V45.2ZM233.504 51.92H248.504V116H233.504V51.92ZM241.064 41.36C238.344 41.36 236.064 40.52 234.224 38.84C232.384 37.08 231.464 34.92 231.464 32.36C231.464 29.8 232.384 27.68 234.224 26C236.064 24.24 238.344 23.36 241.064 23.36C243.784 23.36 246.064 24.2 247.904 25.88C249.744 27.48 250.664 29.52 250.664 32C250.664 34.64 249.744 36.88 247.904 38.72C246.144 40.48 243.864 41.36 241.064 41.36ZM364.152 51.92L340.512 116H326.112L309.552 71.84L292.752 116H278.352L254.832 51.92H268.992L285.912 99.2L303.552 51.92H316.152L333.432 99.44L350.832 51.92H364.152ZM370.465 51.92H385.465V116H370.465V51.92ZM378.025 41.36C375.305 41.36 373.025 40.52 371.185 38.84C369.345 37.08 368.425 34.92 368.425 32.36C368.425 29.8 369.345 27.68 371.185 26C373.025 24.24 375.305 23.36 378.025 23.36C380.745 23.36 383.025 24.2 384.865 25.88C386.705 27.48 387.625 29.52 387.625 32C387.625 34.64 386.705 36.88 384.865 38.72C383.105 40.48 380.825 41.36 378.025 41.36ZM420.953 116.84C415.753 116.84 410.673 116.16 405.713 114.8C400.753 113.44 396.793 111.72 393.833 109.64L399.593 98.24C402.473 100.16 405.913 101.72 409.913 102.92C413.993 104.04 417.993 104.6 421.913 104.6C430.873 104.6 435.353 102.24 435.353 97.52C435.353 95.28 434.193 93.72 431.873 92.84C429.633 91.96 425.993 91.12 420.953 90.32C415.673 89.52 411.353 88.6 407.993 87.56C404.713 86.52 401.833 84.72 399.353 82.16C396.953 79.52 395.753 75.88 395.753 71.24C395.753 65.16 398.273 60.32 403.313 56.72C408.433 53.04 415.313 51.2 423.953 51.2C428.353 51.2 432.753 51.72 437.153 52.76C441.553 53.72 445.153 55.04 447.953 56.72L442.193 68.12C436.753 64.92 430.633 63.32 423.833 63.32C419.433 63.32 416.073 64 413.753 65.36C411.513 66.64 410.393 68.36 410.393 70.52C410.393 72.92 411.593 74.64 413.993 75.68C416.473 76.64 420.273 77.56 425.393 78.44C430.513 79.24 434.713 80.16 437.993 81.2C441.273 82.24 444.073 84 446.393 86.48C448.793 88.96 449.993 92.48 449.993 97.04C449.993 103.04 447.393 107.84 442.193 111.44C436.993 115.04 429.913 116.84 420.953 116.84ZM519.15 84.32C519.15 85.36 519.07 86.84 518.91 88.76H468.63C469.51 93.48 471.79 97.24 475.47 100.04C479.23 102.76 483.87 104.12 489.39 104.12C496.43 104.12 502.23 101.8 506.79 97.16L514.83 106.4C511.95 109.84 508.31 112.44 503.91 114.2C499.51 115.96 494.55 116.84 489.03 116.84C481.99 116.84 475.79 115.44 470.43 112.64C465.07 109.84 460.91 105.96 457.95 101C455.07 95.96 453.63 90.28 453.63 83.96C453.63 77.72 455.03 72.12 457.83 67.16C460.71 62.12 464.67 58.2 469.71 55.4C474.75 52.6 480.43 51.2 486.75 51.2C492.99 51.2 498.55 52.6 503.43 55.4C508.39 58.12 512.23 62 514.95 67.04C517.75 72 519.15 77.76 519.15 84.32ZM486.75 63.2C481.95 63.2 477.87 64.64 474.51 67.52C471.23 70.32 469.23 74.08 468.51 78.8H504.87C504.23 74.16 502.27 70.4 498.99 67.52C495.71 64.64 491.63 63.2 486.75 63.2ZM543.839 61.28C548.159 54.56 555.759 51.2 566.639 51.2V65.48C565.359 65.24 564.199 65.12 563.159 65.12C557.319 65.12 552.759 66.84 549.479 70.28C546.199 73.64 544.559 78.52 544.559 84.92V116H529.559V51.92H543.839V61.28Z"
        fill="#fff"/>
</svg>
